<svg version="1.2" xmlns="http://www.w3.org/2000/svg" viewBox="0 0 576 512" width="576" height="512">
	<title>frog-solid-svg</title>
	<style>
		.s0 { fill: #ffffff } 
	</style>
	<path id="Layer" fill-rule="evenodd" class="s0" d="m368 32c41.7 0 75.9 31.8 79.7 72.5l85.6 26.3c25.4 7.8 42.8 31.3 42.8 57.9 0 21.8-11.7 41.9-30.7 52.7l-144.6 82.1 92.5 92.5h50.7c17.7 0 32 14.3 32 32 0 17.7-14.3 32-32 32h-64c-8.5 0-16.6-3.4-22.6-9.4l-110.5-110.4c11.7-36 3.2-77.1-25.4-105.7-40.6-40.6-106.3-40.6-146.9-0.1l-73.6 70c-6.4 6.1-6.7 16.2-0.6 22.6 6.1 6.4 16.2 6.6 22.6 0.6l73.8-70.2 0.2-0.2c3.5-3.5 7.3-6.6 11.3-9.2 27.9-18.5 65.9-15.4 90.5 9.2 24.7 24.7 27.7 62.9 9 90.9-2.6 3.8-5.6 7.5-9 10.9l-37 37h90.2c17.7 0 32 14.3 32 32 0 17.7-14.3 32-32 32h-288c-35.3 0-64-28.7-64-64 0-166.4 127-303.1 289.3-318.5 6.9-37.3 39.5-65.5 78.7-65.5zm0 104c6.4 0 12.5-2.5 17-7 4.5-4.5 7-10.6 7-17 0-6.4-2.5-12.5-7-17-4.5-4.5-10.6-7-17-7-6.4 0-12.5 2.5-17 7-4.5 4.5-7 10.6-7 17 0 6.4 2.5 12.5 7 17 4.5 4.5 10.6 7 17 7z"/>
</svg>